<svg width="178" height="31" viewBox="0 0 178 31" fill="none" xmlns="http://www.w3.org/2000/svg">
<path d="M8.1872 25.6624C6.97173 25.6624 5.87093 25.5363 4.8848 25.284C3.9216 25.0547 3.096 24.7221 2.408 24.2864C1.72 23.8277 1.1696 23.2888 0.756801 22.6696C0.344001 22.0275 0.091734 21.3165 6.24156e-07 20.5368L3.4056 19.264C3.45147 19.8603 3.6808 20.3992 4.0936 20.8808C4.5064 21.3395 5.07973 21.7064 5.8136 21.9816C6.54747 22.2568 7.4304 22.3944 8.4624 22.3944C9.60907 22.3944 10.492 22.2224 11.1112 21.8784C11.7533 21.5115 12.0744 20.9955 12.0744 20.3304C12.0744 19.8488 11.9024 19.4704 11.5584 19.1952C11.2144 18.8971 10.7099 18.6563 10.0448 18.4728C9.40267 18.2664 8.62293 18.0715 7.7056 17.888C6.85707 17.7045 5.99707 17.4981 5.1256 17.2688C4.27707 17.0165 3.48587 16.6955 2.752 16.3056C2.04107 15.8928 1.45627 15.3653 0.997601 14.7232C0.561867 14.0581 0.344001 13.2211 0.344001 12.212C0.344001 11.1112 0.630667 10.1595 1.204 9.3568C1.80027 8.55413 2.6488 7.92347 3.7496 7.4648C4.87333 7.00613 6.2264 6.7768 7.8088 6.7768C9.29947 6.7768 10.5837 6.9832 11.6616 7.396C12.7624 7.8088 13.6568 8.40507 14.3448 9.1848C15.0328 9.9416 15.4685 10.8475 15.652 11.9024L12.0744 13.0376C12.0056 12.3955 11.7877 11.8565 11.4208 11.4208C11.0539 10.9621 10.5608 10.6181 9.9416 10.3888C9.3224 10.1595 8.6 10.0448 7.7744 10.0448C6.71947 10.0448 5.89387 10.2283 5.2976 10.5952C4.70133 10.9621 4.4032 11.4552 4.4032 12.0744C4.4032 12.5789 4.58667 12.9803 4.9536 13.2784C5.34347 13.5765 5.87093 13.8173 6.536 14.0008C7.224 14.1843 8.00373 14.3677 8.8752 14.5512C9.79253 14.7347 10.6755 14.9525 11.524 15.2048C12.3955 15.4341 13.1752 15.7437 13.8632 16.1336C14.5512 16.5235 15.1016 17.0395 15.5144 17.6816C15.9272 18.3008 16.1336 19.1035 16.1336 20.0896C16.1336 21.2821 15.8125 22.3027 15.1704 23.1512C14.5283 23.9768 13.6109 24.6075 12.4184 25.0432C11.2488 25.456 9.8384 25.6624 8.1872 25.6624ZM25.7661 25.6624C23.7021 25.6624 22.1427 24.9629 21.0877 23.564C20.0557 22.1421 19.5397 19.9979 19.5397 17.1312V7.224H23.9085V16.6496C23.9085 18.4613 24.1837 19.8144 24.7341 20.7088C25.2845 21.6032 26.1331 22.0504 27.2797 22.0504C27.9448 22.0504 28.5296 21.8899 29.0341 21.5688C29.5387 21.2248 29.9744 20.7547 30.3413 20.1584C30.7083 19.5392 30.9949 18.8283 31.2013 18.0256C31.4307 17.2229 31.5683 16.34 31.6141 15.3768V7.224H35.9485V17.8192V25.2152H32.3709L32.4397 19.5392H31.8205C31.5224 20.984 31.0981 22.1536 30.5477 23.048C30.0203 23.9424 29.3667 24.6075 28.5869 25.0432C27.8072 25.456 26.8669 25.6624 25.7661 25.6624ZM40.8446 30.9256V16.34V7.224H44.491L44.4566 12.1088L45.0414 12.1432C45.2708 10.9965 45.6377 10.0219 46.1422 9.2192C46.6697 8.41653 47.3348 7.8088 48.1374 7.396C48.9401 6.9832 49.8918 6.7768 50.9926 6.7768C52.598 6.7768 53.9625 7.17813 55.0862 7.9808C56.21 8.76053 57.0585 9.8728 57.6318 11.3176C58.2281 12.7395 58.5262 14.4021 58.5262 16.3056C58.5262 18.0944 58.251 19.6997 57.7006 21.1216C57.1732 22.5205 56.359 23.6328 55.2582 24.4584C54.1804 25.2611 52.8388 25.6624 51.2334 25.6624C50.0638 25.6624 49.0777 25.4331 48.275 24.9744C47.4724 24.5157 46.8188 23.8851 46.3142 23.0824C45.8097 22.2797 45.3969 21.3509 45.0758 20.296H44.4566C44.5942 20.9152 44.7089 21.5573 44.8006 22.2224C44.9153 22.8645 45.007 23.5067 45.0758 24.1488C45.1446 24.768 45.179 25.3643 45.179 25.9376V30.9256H40.8446ZM49.823 22.1192C50.7174 22.1192 51.4742 21.8784 52.0934 21.3968C52.7126 20.8923 53.1828 20.2043 53.5038 19.3328C53.8249 18.4384 53.9854 17.4179 53.9854 16.2712C53.9854 15.0787 53.8134 14.0467 53.4694 13.1752C53.1484 12.3037 52.6668 11.6272 52.0246 11.1456C51.3825 10.664 50.6257 10.4232 49.7542 10.4232C48.9974 10.4232 48.3324 10.5952 47.759 10.9392C47.1857 11.2832 46.7041 11.7419 46.3142 12.3152C45.9244 12.8656 45.6377 13.4619 45.4542 14.104C45.2708 14.7461 45.179 15.3768 45.179 15.996V16.5808C45.179 17.0395 45.2364 17.5211 45.351 18.0256C45.4886 18.5072 45.6836 19.0003 45.9358 19.5048C46.1881 19.9864 46.4977 20.4336 46.8646 20.8464C47.2316 21.2363 47.6673 21.5459 48.1718 21.7752C48.6764 22.0045 49.2268 22.1192 49.823 22.1192ZM70.5974 25.6624C69.1526 25.6624 67.8569 25.456 66.7102 25.0432C65.5865 24.6304 64.6347 24.0341 63.855 23.2544C63.0753 22.4517 62.479 21.4885 62.0662 20.3648C61.6534 19.2411 61.447 17.9683 61.447 16.5464C61.447 15.1245 61.6419 13.8173 62.0318 12.6248C62.4446 11.4323 63.0294 10.4003 63.7862 9.5288C64.543 8.65733 65.4603 7.9808 66.5382 7.4992C67.639 7.0176 68.8889 6.7768 70.2878 6.7768C71.595 6.7768 72.7646 6.99467 73.7966 7.4304C74.8286 7.86613 75.7001 8.51973 76.411 9.3912C77.1219 10.2397 77.6494 11.3061 77.9934 12.5904C78.3374 13.8517 78.4521 15.3195 78.3374 16.9936L64.2678 17.0968V14.5856L75.8262 14.4824L74.3126 15.8928C74.4502 14.5856 74.347 13.5192 74.003 12.6936C73.659 11.8451 73.1659 11.2259 72.5238 10.836C71.8817 10.4232 71.1478 10.2168 70.3222 10.2168C69.3819 10.2168 68.5563 10.4691 67.8454 10.9736C67.1345 11.4552 66.5841 12.1661 66.1942 13.1064C65.8273 14.0237 65.6438 15.1475 65.6438 16.4776C65.6438 18.4728 66.0795 19.9635 66.951 20.9496C67.8454 21.9357 69.0609 22.4288 70.5974 22.4288C71.2854 22.4288 71.8587 22.3485 72.3174 22.188C72.799 22.0045 73.2003 21.7752 73.5214 21.5C73.8425 21.2019 74.0947 20.8693 74.2782 20.5024C74.4846 20.1355 74.6451 19.7456 74.7598 19.3328L78.5438 20.1928C78.3603 21.0413 78.0622 21.7981 77.6494 22.4632C77.2366 23.1283 76.6977 23.7016 76.0326 24.1832C75.3905 24.6648 74.6222 25.0317 73.7278 25.284C72.8334 25.5363 71.7899 25.6624 70.5974 25.6624ZM82.2993 25.2152V16.2024V7.224H85.9457L85.8769 13.416H86.4961C86.7025 11.9483 87.0236 10.7328 87.4593 9.7696C87.895 8.78347 88.5028 8.0496 89.2825 7.568C90.0622 7.06347 91.0254 6.8112 92.1721 6.8112C92.4014 6.8112 92.6422 6.82267 92.8945 6.8456C93.1697 6.86853 93.4678 6.92587 93.7889 7.0176L93.6169 11.5928C93.25 11.4552 92.8716 11.3635 92.4817 11.3176C92.1148 11.2488 91.7708 11.2144 91.4497 11.2144C90.5553 11.2144 89.7756 11.4437 89.1105 11.9024C88.4684 12.3611 87.9409 13.0147 87.5281 13.8632C87.1382 14.6888 86.8401 15.6749 86.6337 16.8216V25.2152H82.2993ZM101.848 25.2152L95.6901 7.2584H100.506L104.668 21.7408H105.184L109.347 7.2584H114.025L107.833 25.2152H101.848ZM116.901 25.2152V7.224H121.235V25.2152H116.901ZM119.068 4.4032C118.197 4.4032 117.52 4.21973 117.038 3.8528C116.58 3.46293 116.35 2.91253 116.35 2.2016C116.35 1.49067 116.58 0.951733 117.038 0.584801C117.52 0.194933 118.197 -1.64795e-07 119.068 -1.64795e-07C119.985 -1.64795e-07 120.673 0.183467 121.132 0.550401C121.591 0.917334 121.82 1.46773 121.82 2.2016C121.82 2.91253 121.579 3.46293 121.098 3.8528C120.639 4.21973 119.962 4.4032 119.068 4.4032ZM133.089 25.6624C131.873 25.6624 130.773 25.5363 129.786 25.284C128.823 25.0547 127.998 24.7221 127.31 24.2864C126.622 23.8277 126.071 23.2888 125.658 22.6696C125.246 22.0275 124.993 21.3165 124.902 20.5368L128.307 19.264C128.353 19.8603 128.582 20.3992 128.995 20.8808C129.408 21.3395 129.981 21.7064 130.715 21.9816C131.449 22.2568 132.332 22.3944 133.364 22.3944C134.511 22.3944 135.394 22.2224 136.013 21.8784C136.655 21.5115 136.976 20.9955 136.976 20.3304C136.976 19.8488 136.804 19.4704 136.46 19.1952C136.116 18.8971 135.611 18.6563 134.946 18.4728C134.304 18.2664 133.525 18.0715 132.607 17.888C131.759 17.7045 130.899 17.4981 130.027 17.2688C129.179 17.0165 128.387 16.6955 127.654 16.3056C126.943 15.8928 126.358 15.3653 125.899 14.7232C125.463 14.0581 125.246 13.2211 125.246 12.212C125.246 11.1112 125.532 10.1595 126.106 9.3568C126.702 8.55413 127.55 7.92347 128.651 7.4648C129.775 7.00613 131.128 6.7768 132.71 6.7768C134.201 6.7768 135.485 6.9832 136.563 7.396C137.664 7.8088 138.558 8.40507 139.246 9.1848C139.934 9.9416 140.37 10.8475 140.554 11.9024L136.976 13.0376C136.907 12.3955 136.689 11.8565 136.322 11.4208C135.955 10.9621 135.462 10.6181 134.843 10.3888C134.224 10.1595 133.502 10.0448 132.676 10.0448C131.621 10.0448 130.795 10.2283 130.199 10.5952C129.603 10.9621 129.305 11.4552 129.305 12.0744C129.305 12.5789 129.488 12.9803 129.855 13.2784C130.245 13.5765 130.773 13.8173 131.438 14.0008C132.126 14.1843 132.905 14.3677 133.777 14.5512C134.694 14.7347 135.577 14.9525 136.426 15.2048C137.297 15.4341 138.077 15.7437 138.765 16.1336C139.453 16.5235 140.003 17.0395 140.416 17.6816C140.829 18.3008 141.035 19.1035 141.035 20.0896C141.035 21.2821 140.714 22.3027 140.072 23.1512C139.43 23.9768 138.513 24.6075 137.32 25.0432C136.15 25.456 134.74 25.6624 133.089 25.6624ZM152.832 25.6624C151.066 25.6624 149.506 25.3069 148.153 24.596C146.8 23.8621 145.734 22.7957 144.954 21.3968C144.197 19.9749 143.819 18.232 143.819 16.168C143.819 14.0581 144.209 12.3152 144.988 10.9392C145.791 9.54027 146.869 8.4968 148.222 7.8088C149.575 7.1208 151.1 6.7768 152.797 6.7768C154.563 6.7768 156.123 7.13227 157.476 7.8432C158.829 8.55413 159.895 9.62053 160.675 11.0424C161.455 12.4413 161.844 14.1843 161.844 16.2712C161.844 18.3811 161.455 20.1355 160.675 21.5344C159.895 22.9333 158.817 23.9768 157.441 24.6648C156.088 25.3299 154.552 25.6624 152.832 25.6624ZM153.004 22.36C153.967 22.36 154.781 22.1421 155.446 21.7064C156.111 21.2477 156.616 20.5712 156.96 19.6768C157.327 18.7824 157.51 17.716 157.51 16.4776C157.51 15.1704 157.315 14.0581 156.925 13.1408C156.558 12.2005 156.019 11.4781 155.308 10.9736C154.62 10.4691 153.749 10.2168 152.694 10.2168C151.777 10.2168 150.974 10.4461 150.286 10.9048C149.598 11.3405 149.071 11.9941 148.704 12.8656C148.36 13.7371 148.188 14.8149 148.188 16.0992C148.188 18.1173 148.612 19.6653 149.46 20.7432C150.332 21.8211 151.513 22.36 153.004 22.36ZM165.746 25.2152V16.2024V7.224H169.393L169.324 13.416H169.943C170.149 11.9483 170.47 10.7328 170.906 9.7696C171.342 8.78347 171.95 8.0496 172.729 7.568C173.509 7.06347 174.472 6.8112 175.619 6.8112C175.848 6.8112 176.089 6.82267 176.341 6.8456C176.617 6.86853 176.915 6.92587 177.236 7.0176L177.064 11.5928C176.697 11.4552 176.318 11.3635 175.929 11.3176C175.562 11.2488 175.218 11.2144 174.897 11.2144C174.002 11.2144 173.222 11.4437 172.557 11.9024C171.915 12.3611 171.388 13.0147 170.975 13.8632C170.585 14.6888 170.287 15.6749 170.081 16.8216V25.2152H165.746Z" fill="black"/>
</svg>
